<svg xmlns="http://www.w3.org/2000/svg" viewBox="-1.6 -3.2 35.2 43.2" x="0px" y="0px"><path d="M23.776,21H7.783c-.875,0-1.62-.125-2.279-.38-2.694-1.047-4.503-3.708-4.503-6.62,0-3.542,2.645-6.478,6.062-6.938,.459-3.418,3.396-6.062,6.938-6.062,1.979,0,3.815,.813,5.139,2.255,.607-.169,1.231-.255,1.861-.255,3.119,0,5.879,2.108,6.729,5.074,2.314,1.454,3.567,4.095,3.211,6.852-.446,3.463-3.526,6.074-7.164,6.074ZM14,3c-2.757,0-5,2.243-5,5,0,.552-.448,1-1,1-2.757,0-5,2.243-5,5,0,2.094,1.297,4.005,3.228,4.755,.424,.165,.933,.245,1.555,.245h15.993c2.635,0,4.862-1.861,5.181-4.33,.268-2.082-.742-4.071-2.573-5.066-.256-.139-.438-.382-.5-.667-.494-2.281-2.548-3.937-4.884-3.937-.623,0-1.237,.118-1.827,.35-.42,.164-.898,.029-1.167-.333-.957-1.282-2.417-2.018-4.005-2.018ZM6,28c-.552,0-1-.448-1-1v-3c0-.552,.448-1,1-1s1,.448,1,1v3c0,.552-.448,1-1,1Zm11-1v-3c0-.552-.448-1-1-1s-1,.448-1,1v3c0,.552,.448,1,1,1s1-.448,1-1Zm-5,3v-3c0-.552-.448-1-1-1s-1,.448-1,1v3c0,.552,.448,1,1,1s1-.448,1-1Zm10,0v-3c0-.552-.448-1-1-1s-1,.448-1,1v3c0,.552,.448,1,1,1s1-.448,1-1Zm5-3v-3c0-.552-.448-1-1-1s-1,.448-1,1v3c0,.552,.448,1,1,1s1-.448,1-1Z"/><text x="0.0" y="37.6" font-size="1.6" font-weight="bold" font-family="Arbeit Regular, Helvetica, Arial-Unicode, Arial, Sans-serif" fill="#000000">Created by Corner Pixel</text><text x="0.0" y="39.2" font-size="1.6" font-weight="bold" font-family="Arbeit Regular, Helvetica, Arial-Unicode, Arial, Sans-serif" fill="#000000">from Noun Project</text></svg>