<svg xmlns="http://www.w3.org/2000/svg" xmlns:xlink="http://www.w3.org/1999/xlink" xml:space="preserve" style="shape-rendering:geometricPrecision;text-rendering:geometricPrecision;image-rendering:optimizeQuality;" viewBox="0 0 28.4444 35.5555" x="0px" y="0px" fill-rule="evenodd" clip-rule="evenodd"><defs><style type="text/css">
   
    .fil1 {fill:none}
    .fil0 {fill:black}
   
  </style></defs><g><g><g><path class="fil0" d="M17.5698 21.1103l-6.51687 0c-0.120075,0 -0.218413,-0.0953661 -0.222091,-0.215382 -0.0301339,-0.981165 -0.823138,-1.74975 -1.80536,-1.74975 -0.982224,0 -1.77523,0.768587 -1.80536,1.74975 -0.00367717,0.120016 -0.102031,0.215382 -0.222091,0.215382l-0.937228 0c-0.666398,0 -1.2946,-0.261185 -1.76886,-0.735449 -0.474268,-0.474252 -0.735453,-1.10244 -0.735453,-1.76885 0,-0.666406 0.261185,-1.2946 0.735449,-1.76885 0.474264,-0.474264 1.10244,-0.735449 1.76886,-0.735449l12.3272 3.93701e-006c0.532555,0 1.56965,0.166555 2.58073,0.414465 0.0993819,0.0243701 0.169276,0.113476 0.169276,0.215815l0 2.67816c0,0.0867559 -0.0504921,0.165579 -0.129323,0.201854 -0.078811,0.036252 -0.171539,0.0233465 -0.237421,-0.0330945 -0.326598,-0.279697 -0.743551,-0.433724 -1.17406,-0.433724 -0.98222,0 -1.77521,0.768587 -1.80535,1.74975 -0.0036811,0.120004 -0.102035,0.21537 -0.222091,0.21537zm-6.31162 -0.444402l6.10636 0c0.063689,-0.50437 0.295197,-0.970016 0.664528,-1.32886 0.422311,-0.410311 0.979232,-0.636283 1.56817,-0.636283 0.386067,0 0.763437,0.0994528 1.09638,0.28513l0 -2.07877c-0.912272,-0.214563 -1.84174,-0.361024 -2.30561,-0.361024l-12.3272 0c-1.13583,0 -2.05989,0.924059 -2.05989,2.05989 0,1.13583 0.924075,2.05989 2.05989,2.05989l0.73198 0c0.0636929,-0.50437 0.295209,-0.970016 0.664543,-1.32886 0.422311,-0.410311 0.979236,-0.636283 1.56817,-0.636283 0.588953,0 1.14586,0.225965 1.56817,0.636283 0.369327,0.358874 0.600835,0.824496 0.664528,1.32887zm10.936 0.444252c-0.0587283,0 -0.115087,-0.0232638 -0.156736,-0.0647047 -0.0419134,-0.0417008 -0.0654646,-0.098378 -0.0654646,-0.157496l0 -3.79075c0,-0.0713937 0.034315,-0.138445 0.0922126,-0.18022 0.0579094,-0.0417756 0.13235,-0.0531929 0.20011,-0.0306378 0.680039,0.226118 1.22284,0.465681 1.61335,0.712039 0.504043,0.317972 0.759606,0.657 0.759606,1.00764 0,0.0063189 -0.000279528,0.012622 -0.00080315,0.0189173 -0.0897559,1.05045 -0.314642,1.68143 -0.729228,2.04588 -0.410524,0.36089 -0.959406,0.435657 -1.71196,0.439339 -0.000362205,-3.93701e-006 -0.000724409,-3.93701e-006 -0.00108661,-3.93701e-006zm0.222209 -3.70094l0 3.25291c0.534409,-0.0158465 0.927268,-0.0875787 1.19743,-0.325071 0.320528,-0.28178 0.49922,-0.818386 0.578921,-1.73912 -0.00567717,-0.181217 -0.20126,-0.402311 -0.552205,-0.623693 -0.304028,-0.191807 -0.714894,-0.381386 -1.22414,-0.565024z"/></g><g><path class="fil0" d="M24.3149 19.5695l-0.914217 0c-0.585004,0 -1.06094,-0.475933 -1.06094,-1.06094l0 -0.429102c0,-0.348386 0.283421,-0.631811 0.631811,-0.631811l0.590031 3.93701e-006c0.0376102,0 0.0746024,0.00955512 0.10752,0.027748 0.651488,0.36022 0.968181,0.730063 0.968181,1.13068 0,0.0063189 -0.000279528,0.012622 -0.00080315,0.0189173 -0.0247323,0.289445 -0.0586614,0.539925 -0.103689,0.765756 -0.020689,0.103933 -0.111937,0.178744 -0.217898,0.178744zm-1.34333 -1.67744c-0.103327,0 -0.187402,0.0840787 -0.187402,0.187402l0 0.429102c0,0.339957 0.276575,0.616531 0.616528,0.616531l0.728508 -7.87402e-006c0.0258465,-0.159571 0.0468307,-0.333665 0.0635787,-0.527118 -0.00625197,-0.205815 -0.249921,-0.455087 -0.689299,-0.705913l-0.531913 3.93701e-006z"/></g><g><path class="fil0" d="M6.25567 17.8846l-2.27147 0c-0.122713,0 -0.222201,-0.0994764 -0.222201,-0.222201 0,-0.122724 0.0994921,-0.222205 0.222201,-0.222205l2.27147 -3.93701e-006c0.122713,0 0.222201,0.0994764 0.222201,0.222201 0,0.122724 -0.0994882,0.222209 -0.222201,0.222209z"/></g><g><path class="fil0" d="M6.25567 19.1403l-2.45541 0c-0.122713,0 -0.222201,-0.0994764 -0.222201,-0.222201 0,-0.122724 0.0994921,-0.222201 0.222201,-0.222201l2.45541 -3.93701e-006c0.122713,0 0.222201,0.0994764 0.222201,0.222201 0,0.122724 -0.0994882,0.222205 -0.222201,0.222205z"/></g><g><path class="fil0" d="M9.02544 23.2023c-1.24106,0 -2.25074,-1.00968 -2.25074,-2.25074 0,-1.24105 1.00968,-2.25073 2.25074,-2.25073 1.24106,0 2.25074,1.00968 2.25074,2.25073 0,1.24106 -1.00968,2.25074 -2.25074,2.25074zm0 -4.05707c-0.996016,0 -1.80634,0.810319 -1.80634,1.80632 0,0.996028 0.810323,1.80633 1.80634,1.80633 0.996012,0 1.80633,-0.810319 1.80633,-1.80633 0,-0.996 -0.810311,-1.80632 -1.80633,-1.80632z"/></g><g><path class="fil0" d="M19.5972 23.2023c-1.24105,0 -2.25073,-1.00968 -2.25073,-2.25074 0,-1.24105 1.00968,-2.25073 2.25073,-2.25073 0.536413,0 1.05601,0.191957 1.46311,0.540512 0.0493031,0.0422047 0.077689,0.103862 0.077689,0.168776l0 3.08286c0,0.0649134 -0.0283858,0.126559 -0.077689,0.16878 -0.407098,0.348587 -0.926709,0.540535 -1.46311,0.540535zm0 -4.05707c-0.996016,0 -1.80632,0.810319 -1.80632,1.80632 0,0.996028 0.810319,1.80633 1.80632,1.80633 0.397063,0 0.782618,-0.131028 1.09638,-0.370827l0 -2.87102c-0.313764,-0.239791 -0.699319,-0.370803 -1.09638,-0.370803z"/></g><g><path class="fil0" d="M19.5972 22.391c-0.793697,0 -1.43942,-0.645724 -1.43942,-1.43943 0,-0.793705 0.645724,-1.43943 1.43942,-1.43943 0.793713,0 1.43943,0.645728 1.43943,1.43943 0,0.793709 -0.645709,1.43943 -1.43943,1.43943zm0 -2.43448c-0.548661,0 -0.995012,0.446378 -0.995012,0.995028 0,0.548654 0.446366,0.995028 0.995012,0.995028 0.54865,0 0.995031,-0.446374 0.995031,-0.995028 0,-0.54865 -0.446366,-0.995028 -0.995031,-0.995028z"/></g><g><path class="fil0" d="M9.02544 22.391c-0.793713,0 -1.43943,-0.645724 -1.43943,-1.43943 0,-0.793705 0.645724,-1.43943 1.43943,-1.43943 0.793705,0 1.43943,0.645728 1.43943,1.43943 0,0.793709 -0.64572,1.43943 -1.43943,1.43943zm0 -2.43448c-0.548665,0 -0.995031,0.446378 -0.995031,0.995028 0,0.548654 0.446366,0.995028 0.995031,0.995028 0.548661,0 0.995028,-0.446374 0.995028,-0.995028 0,-0.54865 -0.44635,-0.995028 -0.995028,-0.995028z"/></g><g><path class="fil0" d="M6.03267 16.5464c-0.0430512,0 -0.0865512,-0.0124882 -0.124827,-0.0385276 -0.101449,-0.069063 -0.127724,-0.207272 -0.0586772,-0.308724 0.0447756,-0.0657717 0.0905512,-0.133598 0.137366,-0.202953 0.350398,-0.519189 0.747571,-1.10765 1.21607,-1.58224 0.570508,-0.577909 1.12676,-0.860457 1.70055,-0.86376l6.49999 -0.037622c0.00148425,-1.5748e-005 0.00303937,-1.5748e-005 0.00451181,-1.5748e-005 0.410547,0 0.716539,0.324461 0.962626,0.585382 0.0632441,0.0670669 0.122976,0.130394 0.180291,0.184543l1.98998 1.88001c0.0892126,0.0842717 0.0932126,0.224909 0.00894488,0.31411 -0.0842874,0.0892165 -0.224886,0.0932126 -0.314126,0.00894488l-1.98997 -1.88001c-0.0666457,-0.0629528 -0.133626,-0.133972 -0.198413,-0.202673 -0.206776,-0.219217 -0.420575,-0.445894 -0.639449,-0.445894 -0.000610236,0 -0.00122047,0 -0.00183071,0l-6.49999 0.037622c-0.449807,0.00261024 -0.903449,0.241913 -1.38685,0.731575 -0.439508,0.445213 -0.824406,1.0155 -1.16399,1.51865 -0.0471339,0.0698425 -0.0932402,0.138157 -0.138323,0.204398 -0.0429882,0.0631496 -0.112831,0.0971732 -0.183894,0.097189z"/></g><g><path class="fil0" d="M8.90445 16.5461c-0.122717,0 -0.222201,-0.0994803 -0.222201,-0.222205l0 -2.55161c0,-0.122713 0.0994921,-0.222201 0.222201,-0.222201 0.122709,0 0.222201,0.0994921 0.222201,0.222201l0 2.55161c0,0.122724 -0.0994921,0.222205 -0.222201,0.222205z"/></g><g><path class="fil0" d="M13.6684 16.5461c-0.122717,0 -0.222205,-0.0994803 -0.222205,-0.222205l0 -2.57918c0,-0.122713 0.0994961,-0.222201 0.222205,-0.222201 0.122709,0 0.222201,0.0994921 0.222201,0.222201l0 2.57918c0,0.122724 -0.0994764,0.222205 -0.222201,0.222205z"/></g><g><path class="fil0" d="M16.493 20.3407l-4.36328 0c-0.122713,0 -0.222201,-0.0994803 -0.222201,-0.222205 0,-0.122724 0.0994921,-0.222201 0.222201,-0.222201l4.36328 0c0.122724,0 0.222205,0.0994764 0.222205,0.222201 0,0.122724 -0.0994803,0.222205 -0.222205,0.222205z"/></g><g><path class="fil0" d="M15.6647 19.4865l-2.7067 0c-0.122717,0 -0.222205,-0.0994764 -0.222205,-0.222201 0,-0.122724 0.0994961,-0.222201 0.222205,-0.222201l2.7067 -7.87402e-006c0.122724,0 0.222205,0.0994764 0.222205,0.222201 0,0.122728 -0.0994803,0.222209 -0.222205,0.222209z"/></g><g><path class="fil0" d="M22.1942 23.2023l-1.27841 0c-0.122724,0 -0.222201,-0.0994764 -0.222201,-0.222201l0 -11.2941c0,-0.122717 0.0994764,-0.222205 0.222201,-0.222205l1.27841 -3.93701e-006c0.122724,0 0.222201,0.0994921 0.222201,0.222201l0 11.2941c7.87402e-006,0.122728 -0.0994724,0.222205 -0.222201,0.222205zm-1.05619 -0.444402l0.834004 0 0 -10.8497 -0.834004 0 0 10.8497z"/></g><g><path class="fil0" d="M24.2396 11.9081l-5.36929 0c-0.35748,0 -0.648335,-0.290839 -0.648335,-0.648335l0 -5.36929c0,-0.3575 0.290839,-0.64835 0.648335,-0.64835l5.36929 0c0.3575,0 0.64835,0.290835 0.64835,0.64835l0 5.36929c0,0.357496 -0.290835,0.648335 -0.64835,0.648335zm-5.36929 -6.22156c-0.112449,0 -0.203925,0.0914803 -0.203925,0.203941l0 5.3693c0,0.112445 0.0914764,0.203925 0.203925,0.203925l5.36929 3.93701e-006c0.112449,0 0.203941,-0.0914764 0.203941,-0.203925l0 -5.36931c0,-0.112449 -0.0914921,-0.203941 -0.203941,-0.203941l-5.36929 0 0 7.87402e-006z"/></g><g><path class="fil0" d="M20.7134 10.5741c-0.122724,0 -0.222201,-0.0994921 -0.222201,-0.222201l0 -3.45999c0,-0.122713 0.0994764,-0.222201 0.222201,-0.222201 0.122724,0 0.222201,0.0994921 0.222201,0.222201l0 3.45999c7.87402e-006,0.122709 -0.0994724,0.222201 -0.222201,0.222201z"/></g><g><path class="fil0" d="M21.555 8.79737l-0.841626 0c-0.122724,0 -0.222201,-0.0994921 -0.222201,-0.222201l0 -1.68324c0,-0.122713 0.0994764,-0.222201 0.222201,-0.222201l0.841626 0c0.586591,0 1.06382,0.477224 1.06382,1.06383 0,0.586598 -0.477232,1.06381 -1.06382,1.06381zm-0.619417 -0.444409l0.619417 0c0.341555,0 0.619417,-0.277866 0.619417,-0.619406 0,-0.341559 -0.27787,-0.619417 -0.619417,-0.619417l-0.619417 0 0 1.23882z"/></g></g></g><rect class="fil1" width="28.4444" height="28.4444"/><text x="0" y="43.4444" fill="#000000" font-size="5px" font-weight="bold" font-family="'Helvetica Neue', Helvetica, Arial-Unicode, Arial, Sans-serif">Created by Jamil Akhtar</text><text x="0" y="48.4444" fill="#000000" font-size="5px" font-weight="bold" font-family="'Helvetica Neue', Helvetica, Arial-Unicode, Arial, Sans-serif">from the Noun Project</text></svg>