<svg xmlns="http://www.w3.org/2000/svg" version="1.1" viewBox="-5.0 -10.0 110.0 135.0">
 <path d="m89.82 31.289-37.383-10.277c-1.3281-0.36719-3.5469-0.36719-4.875 0l-37.383 10.277c-1.4375 0.39844-1.7383 1.1523-1.7383 1.7148s0.30469 1.3164 1.7383 1.7109l15.137 4.1641v18.578c0 0.44531 0.25391 0.85547 0.65625 1.0508 0.51953 0.25391 12.75 6.1992 23.852 6.1992h0.17188 0.17578c2.5586 0 5.4023-0.34375 8.4414-0.98047-0.035156 0.50391-0.058593 0.98828-0.058593 1.3945v5.5117c0 1.3906 0.73437 2.5859 1.7773 3.1055-0.011719 0.0625-0.019531 0.125-0.019531 0.19141v4.1641c0 0.64844 0.52344 1.1719 1.1719 1.1719s1.1719-0.52344 1.1719-1.1719v-4.082h0.63672v4.082c0 0.64844 0.52344 1.1719 1.1719 1.1719 0.64844 0 1.1719-0.52344 1.1719-1.1719v-4.1641c0-0.066407-0.007813-0.12891-0.019531-0.19141 1.043-0.51562 1.7773-1.7109 1.7773-3.1055v-5.5117c0-1.0469-0.13672-2.5547-0.33203-3.7695 4.082-1.4375 6.8398-2.7852 6.9648-2.8438 0.40234-0.19531 0.65625-0.60547 0.65625-1.0508l-0.003906-18.574 15.137-4.1641c1.4375-0.39453 1.7383-1.1484 1.7383-1.7109 0.003906-0.56641-0.29688-1.3203-1.7344-1.7188zm-39.645 31.078c-0.058593 0-0.125 0.003906-0.17578 0-0.054688 0.003906-0.11328 0-0.17188 0-9.1484 0-19.496-4.4336-22.168-5.6523l0.003906-17.188 19.902 5.4727c0.66406 0.18359 1.5312 0.28125 2.4375 0.28125s1.7734-0.10156 2.4375-0.28125l9.3672-2.5781v5.2383c-1.5781 0.5-2.7344 1.9648-2.7344 3.707 0 1.1523 0.50781 2.1758 1.3047 2.8906l-1.332 6.2617c-0.046875 0.23047-0.09375 0.48828-0.13672 0.75391-3.1836 0.71875-6.125 1.0938-8.7344 1.0938zm12.801-9.4375c-0.85937 0-1.5625-0.69922-1.5625-1.5625 0-0.85938 0.69922-1.5625 1.5625-1.5625 0.85938 0 1.5625 0.69922 1.5625 1.5625 0 0.86328-0.70312 1.5625-1.5625 1.5625zm-0.26562 18.742h-1.2227c-0.23438 0-0.58594-0.41406-0.58594-1.0352v-5.5117c0-1.125 0.19922-3.0117 0.43359-4.1172l1.2266-5.7773c0.13672 0.015625 0.26953 0.042969 0.41016 0.042969s0.27734-0.027344 0.41406-0.042969l1.2266 5.7773c0.23438 1.1055 0.43359 2.9922 0.43359 4.1172v5.5117c0 0.62109-0.35156 1.0352-0.58594 1.0352zm9.6289-14.957c-1 0.45703-3.0742 1.3672-5.7422 2.3203l-1.0156-4.7773c0.79297-0.71484 1.3008-1.7383 1.3008-2.8867 0-1.7422-1.1562-3.2031-2.7344-3.707v-5.8828l8.1914-2.2539zm-9.0938-17.117-8.6211-6.9062c0.082031-0.26953 0.13281-0.54688 0.13281-0.83984 0-1.9961-2.0898-3.5625-4.7539-3.5625-2.668 0-4.7539 1.5625-4.7539 3.5625 0 1.9961 2.0898 3.5586 4.7539 3.5586 1.2266 0 2.3281-0.33203 3.1641-0.88672l7.2891 5.8398-8.6406 2.3789c-0.92188 0.25391-2.7109 0.25391-3.6328 0l-35.398-9.7383 35.402-9.7344c0.92188-0.25391 2.7109-0.25391 3.6328 0l35.398 9.7344zm-13.246-6.5273c-1.4727 0-2.4102-0.71875-2.4102-1.2148 0-0.49609 0.9375-1.2188 2.4102-1.2188s2.4102 0.71875 2.4102 1.2188c0 0.49609-0.9375 1.2148-2.4102 1.2148z"/>
<text x="0.0" y="117.5" font-size="5.0" font-weight="bold" font-family="Arbeit Regular, Helvetica, Arial-Unicode, Arial, Sans-serif" fill="#000000">Created by Azzam</text><text x="0.0" y="122.5" font-size="5.0" font-weight="bold" font-family="Arbeit Regular, Helvetica, Arial-Unicode, Arial, Sans-serif" fill="#000000">from Noun Project</text></svg>