<svg xmlns="http://www.w3.org/2000/svg" data-name="Layer 1" viewBox="0 0 100 125" x="0px" y="0px"><title>kitchenware</title><path d="M47.28339,6.32068A1.46269,1.46269,0,0,0,45.82764,5h-.073A1.46265,1.46265,0,0,0,44.292,6.46265V24.44916a1.38505,1.38505,0,1,1-2.70032,0V6.46265a1.46268,1.46268,0,0,0-2.92535,0V24.44916a1.55163,1.55163,0,0,1-1.3501,1.694,1.55163,1.55163,0,0,1-1.35016-1.694V6.46265a1.46268,1.46268,0,0,0-2.92535,0V24.44916a1.55167,1.55167,0,0,1-1.35016,1.694,1.55163,1.55163,0,0,1-1.35016-1.694V6.46265A1.46264,1.46264,0,0,0,28.87775,5h-.07294A1.4627,1.4627,0,0,0,27.349,6.32068L26.3764,16.293c-1.01416,10.39783-.32074,14.63184,3.62818,18.62488a12.35574,12.35574,0,0,1,4.0683,9.3548c-.16053,13.84014-4.121,28.93267-1.72327,45.07415C32.98419,93.619,34.74725,95,37.31622,95s4.331-1.37451,4.96656-5.65314c2.3977-16.14148-1.56275-31.234-1.72327-45.07415a12.35574,12.35574,0,0,1,4.0683-9.3548c3.94891-3.993,4.64233-8.227,3.62817-18.62488Z"/><path d="M70.80261,5.64948c-1.58117,1.03112-7.48291,5.06042-9.59,15.59283C57.89966,37.80157,62.2923,48.84106,65.987,52.49554c2.82263,2.792,2.0097,4.99781,1.10809,10.09424-2.0766,11.73773-5.06445,25.53449-.9212,30.51441A5.14829,5.14829,0,0,0,69.78381,95c2.35138,0,4.25751-1.42206,4.25751-6.052V6.78766C74.04132,5.25623,72.88733,4.29,70.80261,5.64948Z"/><text x="0" y="115" fill="#000000" font-size="5px" font-weight="bold" font-family="'Helvetica Neue', Helvetica, Arial-Unicode, Arial, Sans-serif">Created by Lnhi</text><text x="0" y="120" fill="#000000" font-size="5px" font-weight="bold" font-family="'Helvetica Neue', Helvetica, Arial-Unicode, Arial, Sans-serif">from the Noun Project</text></svg>