<svg xmlns="http://www.w3.org/2000/svg" xmlns:xlink="http://www.w3.org/1999/xlink" xml:space="preserve" version="1.1" style="shape-rendering:geometricPrecision;text-rendering:geometricPrecision;image-rendering:optimizeQuality;" viewBox="0 0 100 125" x="0px" y="0px" fill-rule="evenodd" clip-rule="evenodd"><defs><style type="text/css">
   
    .fil0 {fill:black;fill-rule:nonzero}
   
  </style></defs><g><path class="fil0" d="M50 2.4c26.29,0 47.6,21.31 47.6,47.6 0,26.29 -21.31,47.6 -47.6,47.6 -26.29,0 -47.6,-21.31 -47.6,-47.6 0,-26.29 21.32,-47.6 47.6,-47.6zm0.79 87.51l0.13 5.8c11.21,-0.21 21.43,-4.47 29.27,-11.37 0.12,-1.68 0.07,-3.46 -0.42,-5.08 -4.48,1.11 -9.15,1.64 -13.75,1.08 -4.19,4.37 -9.38,7.8 -15.23,9.57zm-1.75 5.8l-0.12 -5.8c-5.74,-1.73 -10.83,-5.24 -14.94,-9.57 -4.6,0.56 -9.27,0.03 -13.75,-1.08 -0.49,1.62 -0.54,3.4 -0.42,5.08 7.83,6.89 18.04,11.14 29.23,11.37zm10.01 -32.11c3.9,-5.18 7.24,-10.78 9.86,-16.72 -2.58,-5.3 -5.8,-11.15 -9.78,-15.55 -6.09,0 -12.17,0 -18.26,0 -3.98,4.4 -7.2,10.25 -9.79,15.55 2.63,5.94 5.97,11.54 9.87,16.72 6.4,0.56 11.7,0.56 18.1,0zm-26.75 -44.75c2.71,3.62 5.53,7.25 8.57,10.6 6.09,0 12.17,0 18.26,0 3.04,-3.35 5.86,-6.98 8.57,-10.6 -2.53,-3.63 -5.48,-6.99 -9.03,-9.65 -3.5,-1.74 -13.84,-1.74 -17.34,0 -3.55,2.66 -6.5,6.02 -9.03,9.65zm7.06 45.75c-3.92,-5.23 -7.28,-10.84 -9.93,-16.82 -4.44,-0.12 -8.9,-0.46 -13.29,-1.17 -2.82,4.01 -4.56,9.6 -5.72,14.32 1.92,6.14 4.99,11.88 9.68,16.36 4.39,1.14 9,1.73 13.53,1.2 1.57,-4.75 3.53,-9.39 5.73,-13.89zm-34.33 -6.26c1.25,0.8 2.32,1.09 3.73,1.5 1.19,-4.71 2.91,-9.99 5.66,-14.04 -0.9,-5.44 -0.85,-10.95 0.36,-16.35 -1.49,-0.66 -3,-1.49 -4.23,-2.58 -5.39,9.17 -7.67,20.98 -5.52,31.47zm6.52 -33.09c1.12,1.07 2.62,1.88 4.04,2.5 3.67,-4.47 9.3,-7.32 14.66,-9.23 2.58,-3.81 5.62,-7.41 9.24,-10.27 -1.8,-1.24 -2.6,-1.44 -3.86,-1.67 -9.93,3.22 -18.44,9.92 -24.08,18.67zm72.31 21.36c-4.39,0.71 -8.85,1.05 -13.29,1.17 -2.65,5.98 -6.01,11.59 -9.93,16.82 2.2,4.5 4.16,9.14 5.73,13.89 4.53,0.53 9.14,-0.06 13.53,-1.2 4.69,-4.48 7.76,-10.22 9.68,-16.36 -1.16,-4.72 -2.9,-10.31 -5.72,-14.32zm1.36 -17.16c1.21,5.4 1.25,10.91 0.36,16.35 2.75,4.05 4.47,9.33 5.66,14.04 1.46,-0.43 2.35,-0.79 3.71,-1.4 2.26,-11.03 0.22,-21.84 -5.5,-31.56 -1.22,1.08 -2.74,1.91 -4.23,2.57zm-24.71 -21.2c3.62,2.86 6.66,6.46 9.24,10.27 5.36,1.91 10.99,4.76 14.66,9.23 1.42,-0.62 2.92,-1.43 4.04,-2.5 -5.7,-8.85 -14.31,-15.5 -24.34,-18.76 -1.25,0.09 -2.59,1.06 -3.6,1.76z"/></g><text x="0" y="115" fill="#000000" font-size="5px" font-weight="bold" font-family="'Helvetica Neue', Helvetica, Arial-Unicode, Arial, Sans-serif">Created by Qomariyah</text><text x="0" y="120" fill="#000000" font-size="5px" font-weight="bold" font-family="'Helvetica Neue', Helvetica, Arial-Unicode, Arial, Sans-serif">from the Noun Project</text></svg>